<svg id="Capa_1" enable-background="new 0 0 512.001 512.001" height="512" viewBox="0 0 512.001 512.001" width="512" xmlns="http://www.w3.org/2000/svg"><g><g><g><path d="m208.001 168.02h96.003v312.017h-96.003z" fill="#554e56"/></g><g><path d="m296.145 108.02v-42.531c0-9.15-7.418-16.568-16.568-16.568h-47.153c-9.15 0-16.568 7.418-16.568 16.568v42.531z" fill="#525254"/></g><g><path d="m296.145 108.02v-42.531c0-9.15-7.418-16.568-16.568-16.568h-47.153c-9.15 0-16.568 7.418-16.568 16.568v42.531z" fill="#ffd900"/></g><g><path d="m279.577 48.921h-23.145c9.15 0 16.568 7.418 16.568 16.568v42.531h23.145v-42.531c0-9.15-7.417-16.568-16.568-16.568z" fill="#fb0"/></g><g><path d="m192.003 476.668c-.641 0-1.291-.083-1.938-.256-32.21-8.595-54.706-37.906-54.706-71.281 0-4.142 3.357-7.5 7.5-7.5s7.5 3.358 7.5 7.5c0 26.591 17.918 49.942 43.573 56.789 4.002 1.067 6.381 5.178 5.313 9.18-.895 3.354-3.927 5.568-7.242 5.568z"/></g><g><path d="m173.161 192.297c-16.749 0-30.587 12.429-32.814 28.565l-26.304 175.628c-5.898 39.377 13.205 78.724 48.452 97.243 13.088 6.877 27.991 10.768 43.802 10.768h12.347c3.05 0 5.615-2.289 5.961-5.319l31.395-274.882v-48.28h-80z" fill="#ffd900"/></g><g><path d="m233.001 176.02v48.281l-31.395 274.882c-.262 2.297-1.802 4.162-3.859 4.933 2.817.253 5.668.386 8.55.386h12.347c3.05 0 5.615-2.289 5.961-5.319l31.395-274.882v-48.281z" fill="#fb0"/></g><g><path d="m320.002 476.677c-3.316 0-6.349-2.216-7.242-5.572-1.066-4.003 1.314-8.111 5.317-9.177 25.673-6.836 43.603-30.191 43.603-56.797 0-4.142 3.357-7.5 7.5-7.5s7.5 3.358 7.5 7.5c0 33.393-22.511 62.709-54.743 71.291-.647.173-1.297.255-1.935.255z"/></g><g><path d="m338.877 192.297c16.749 0 30.587 12.429 32.814 28.565l26.304 175.628c5.898 39.377-13.205 78.724-48.452 97.243-13.088 6.877-27.991 10.768-43.802 10.768h-12.384c-3.051 0-5.616-2.289-5.961-5.32l-31.359-274.881v-48.28h79.963z" fill="#ffd900"/></g><g><path d="m397.995 396.49-26.304-175.628c-2.228-16.136-16.066-28.565-32.814-28.565l-2.876-16.278h-79.963v1.023h56.93l2.876 16.278c16.749 0 30.587 12.429 32.815 28.565l26.304 175.628c5.898 39.377-13.205 78.724-48.452 97.244-9.182 4.824-19.258 8.172-29.913 9.744h9.144c15.811 0 30.714-3.891 43.802-10.768 35.247-18.519 54.349-57.866 48.451-97.243z" fill="#fb0"/></g><g><path d="m318.305 96.008h-124.609c-27.451 0-49.704 22.253-49.704 49.704v30.019c0 9.15 7.418 16.568 16.568 16.568h40.316c11.415 0 21.722 6.303 27.491 16.152 5.555 9.482 15.85 15.85 27.633 15.85s22.079-6.368 27.633-15.85c5.77-9.849 16.076-16.152 27.491-16.152h40.316c9.15 0 16.568-7.418 16.568-16.568v-30.019c.001-27.451-22.252-49.704-49.703-49.704z" fill="#685e68"/></g><g><g><path d="m260.634 208.451c-3.642 6.218-9.331 11.081-16.133 13.703 3.571 1.377 7.444 2.147 11.5 2.147 11.783 0 22.079-6.368 27.633-15.85 5.77-9.85 16.076-16.152 27.491-16.152h-23c-11.415-.001-21.722 6.302-27.491 16.152z" fill="#554e56"/></g><g><path d="m318.305 96.008h-23c27.45 0 49.704 22.253 49.704 49.704v30.019c0 9.15-7.418 16.568-16.568 16.568h23c9.15 0 16.568-7.418 16.568-16.568v-30.019c0-27.451-22.253-49.704-49.704-49.704z" fill="#554e56"/></g></g></g><g><path d="m193.932 461.92c-25.655-6.847-43.573-30.198-43.573-56.789 0-4.142-3.357-7.5-7.5-7.5s-7.5 3.358-7.5 7.5c0 33.375 22.496 62.687 54.706 71.281.647.173 1.298.256 1.938.256 3.314 0 6.347-2.214 7.241-5.568 1.069-4.002-1.31-8.112-5.312-9.18z"/><path d="m369.179 397.631c-4.143 0-7.5 3.358-7.5 7.5 0 26.605-17.93 49.961-43.603 56.797-4.003 1.065-6.384 5.174-5.317 9.177.893 3.356 3.926 5.572 7.242 5.572.639 0 1.288-.082 1.935-.255 32.232-8.582 54.743-37.898 54.743-71.291 0-4.142-3.357-7.5-7.5-7.5z"/><path d="m485.371 499.249-21.278-21.69c1.325-8.267 3.517-27.935-.832-50.061-5.13-26.099-20.561-60.331-64.652-77.55l-10.464-69.865c32.36 3.995 53.948 28.557 54.172 28.817 1.463 1.709 3.563 2.623 5.701 2.623 1.136 0 2.283-.258 3.352-.792l32.003-16.002c3.704-1.853 5.206-6.358 3.353-10.063-1.853-3.704-6.355-5.203-10.063-3.354l-27.064 13.532c-8.968-8.721-31.93-27.724-63.749-30.082l-5.658-37.778c37.097-20.73 59.117-55.304 63.779-100.344 2.835-27.397-1.494-50.909-3.652-60.333l29.002-29.001c2.929-2.93 2.929-7.678 0-10.607-2.93-2.928-7.678-2.928-10.607 0l-32.004 32.003c-1.926 1.927-2.656 4.745-1.908 7.364.076.266 7.565 26.98 4.248 59.03-4.015 38.789-21.509 67.796-52.025 86.379-2.351-6.397-6.262-12.017-11.246-16.428 5.9-4.391 9.73-11.415 9.73-19.318v-30.02c0-31.542-25.661-57.203-57.203-57.203h-14.66v-23.017c0-12.491-9.565-22.787-21.754-23.955 4.418-9.492 11.438-17.682 20.23-23.453l6.565-4.311c3.463-2.274 4.427-6.923 2.153-10.386-2.274-3.464-6.924-4.427-10.386-2.153l-6.565 4.311c-12.998 8.532-22.938 21.24-28.135 35.879h-19.507c-5.197-14.639-15.138-27.346-28.135-35.879l-6.565-4.311c-3.462-2.273-8.111-1.31-10.386 2.153-2.273 3.463-1.31 8.112 2.153 10.386l6.565 4.311c8.792 5.772 15.813 13.961 20.231 23.453-12.189 1.168-21.754 11.464-21.754 23.955v23.019h-14.66c-31.542 0-57.203 25.661-57.203 57.203v30.02c0 7.909 3.836 14.938 9.745 19.328-4.989 4.415-8.899 10.037-11.24 16.43-30.404-18.508-47.889-47.365-51.998-85.934-3.42-32.1 4.125-59.226 4.2-59.488.748-2.619.018-5.438-1.908-7.364l-32.003-32.004c-2.93-2.928-7.678-2.928-10.607 0-2.929 2.93-2.929 7.678 0 10.607l29.002 29.001c-2.158 9.424-6.487 32.936-3.652 60.333 4.663 45.054 26.695 79.636 63.813 100.363l-5.655 37.756c-31.838 2.347-54.815 21.361-63.786 30.086l-27.064-13.532c-3.707-1.85-8.211-.35-10.063 3.354-1.853 3.705-.351 8.21 3.353 10.063l32.003 16.002c1.068.534 2.216.792 3.352.792 2.139 0 4.238-.915 5.701-2.623.231-.27 21.668-24.865 54.21-28.827l-10.463 69.86c-44.121 17.214-59.56 51.458-64.691 77.564-4.349 22.127-2.157 41.794-.832 50.061l-21.278 21.69c-2.901 2.956-2.856 7.705.101 10.605 1.46 1.433 3.357 2.146 5.252 2.146 1.943 0 3.885-.751 5.354-2.248l24.002-24.465c1.779-1.813 2.52-4.403 1.967-6.883-.049-.222-4.874-22.438.153-48.014 5.761-29.311 21.669-50.434 47.351-62.954l-4.185 27.942c-6.434 42.958 14.616 85.151 52.381 104.994 14.479 7.607 30.832 11.628 47.291 11.628h17.701c3.813 0 7.019-2.86 7.451-6.649l2.035-17.815h45.035l2.032 17.815c.432 3.789 3.638 6.65 7.451 6.65h17.738c16.459 0 32.813-4.02 47.291-11.628 37.765-19.843 58.814-62.036 52.381-104.994l-4.182-27.92c25.515 12.455 41.379 33.413 47.218 62.465 5.147 25.613.293 48.266.246 48.481-.553 2.479.188 5.07 1.967 6.883l24.002 24.465c1.469 1.497 3.41 2.248 5.353 2.248 1.896 0 3.793-.714 5.252-2.146 2.956-2.901 3.002-7.65.101-10.606zm-262.015-433.76c0-5 4.067-9.068 9.067-9.068h47.154c5 0 9.067 4.068 9.067 9.068v23.019h-65.289v-23.019zm-62.796 119.309c-5 0-9.067-4.067-9.067-9.067v-30.02c0-23.271 18.933-42.203 42.203-42.203h124.609c23.271 0 42.203 18.933 42.203 42.203v30.02c0 5-4.067 9.067-9.067 9.067h-12.522c-.014 0-.028-.001-.042-.001-.007 0-.013.001-.019.001h-27.733c-13.772 0-26.786 7.61-33.963 19.861-4.387 7.489-12.495 12.142-21.161 12.142s-16.774-4.652-21.161-12.142c-7.177-12.251-20.191-19.861-33.963-19.861h-27.696c-.006 0-.013-.001-.019-.001-.014 0-.028.001-.042.001zm45.737 312.203c-14.038 0-27.979-3.426-40.314-9.907-32.12-16.876-50.013-52.841-44.523-89.492l6.134-40.958c.004-.022.007-.044.01-.066l20.173-134.69c1.737-12.587 12.639-22.079 25.364-22.09h27.736c8.598 0 16.456 4.651 21.02 12.443 5.641 9.63 15.109 16.334 25.803 18.654l-28.367 248.37c0 .003-.001.005-.001.007l-2.025 17.729zm139.758-9.907c-12.336 6.481-26.276 9.907-40.315 9.907h-11.045l-7.745-67.886c-.47-4.116-4.201-7.075-8.301-6.602-4.116.469-7.071 4.186-6.602 8.301l4.759 41.722h-41.61l20.817-182.266 12.611 110.545c.438 3.827 3.681 6.651 7.442 6.651.284 0 .571-.017.859-.05 4.116-.469 7.071-4.186 6.602-8.301l-19.192-168.23c10.679-2.327 20.133-9.026 25.768-18.645 4.563-7.792 12.422-12.443 21.02-12.443h27.773c12.724.011 23.626 9.503 25.376 22.176l.23 1.534c.025.298.072.596.134.893l7.202 48.086c.028.447.093.883.196 1.306l12.284 82.02c.025.485.098.963.214 1.429l6.045 40.361c5.491 36.651-12.402 72.616-44.522 89.492z"/></g></g></svg>